<svg width="10" height="16" viewBox="0 0 10 16" fill="none" xmlns="http://www.w3.org/2000/svg">
<path id="Vector" d="M5.75 1.33331C5.75 0.919099 5.41421 0.583313 5 0.583313C4.58579 0.583313 4.25 0.919099 4.25 1.33331L5.75 1.33331ZM4.25 14.6666C4.25 15.0809 4.58579 15.4166 5 15.4166C5.41421 15.4166 5.75 15.0809 5.75 14.6666H4.25ZM9.69936 11.8613C9.99094 11.5671 9.98882 11.0922 9.69463 10.8006C9.40043 10.509 8.92556 10.5112 8.63398 10.8054L9.69936 11.8613ZM7.71058 12.8025L7.17789 12.2745L7.71058 12.8025ZM2.28942 12.8025L2.82212 12.2745L2.28942 12.8025ZM1.36602 10.8054C1.07444 10.5112 0.599572 10.509 0.305375 10.8006C0.0111782 11.0922 0.00905955 11.5671 0.300643 11.8613L1.36602 10.8054ZM5.26111 14.6501L5.35594 15.3941H5.35594L5.26111 14.6501ZM4.73889 14.6501L4.64406 15.3941H4.64406L4.73889 14.6501ZM4.25 1.33331L4.25 14.6666H5.75L5.75 1.33331L4.25 1.33331ZM8.63398 10.8054L7.17789 12.2745L8.24327 13.3304L9.69936 11.8613L8.63398 10.8054ZM2.82212 12.2745L1.36602 10.8054L0.300643 11.8613L1.75673 13.3304L2.82212 12.2745ZM7.17789 12.2745C6.58487 12.8728 6.18392 13.2758 5.84614 13.547C5.5202 13.8088 5.3266 13.8857 5.16628 13.9061L5.35594 15.3941C5.90329 15.3243 6.35382 15.0632 6.78539 14.7166C7.20513 14.3795 7.67508 13.9037 8.24327 13.3304L7.17789 12.2745ZM1.75673 13.3304C2.32492 13.9037 2.79487 14.3795 3.21461 14.7166C3.64619 15.0632 4.09671 15.3243 4.64406 15.3941L4.83372 13.9061C4.67341 13.8857 4.4798 13.8088 4.15386 13.547C3.81608 13.2758 3.41513 12.8728 2.82212 12.2745L1.75673 13.3304ZM5.16628 13.9061C5.05586 13.9202 4.94414 13.9202 4.83372 13.9061L4.64406 15.3941C4.88041 15.4242 5.11959 15.4242 5.35594 15.3941L5.16628 13.9061Z" fill="currentColor"/>
</svg>
