<svg xmlns="http://www.w3.org/2000/svg" width="14" height="16" viewBox="0 0 14 16" fill="none">
  <path d="M2.37405 14.0301L2.81489 13.4233L2.37405 14.0301ZM1.63661 13.2927L2.24337 12.8518L1.63661 13.2927ZM12.3634 13.2927L11.7566 12.8518L12.3634 13.2927ZM11.626 14.0301L12.0668 14.6369L11.626 14.0301ZM11.626 3.30332L12.0668 2.69655L11.626 3.30332ZM12.3634 4.04076L11.7566 4.4816L12.3634 4.04076ZM2.37405 3.30332L2.81489 3.91008L2.81489 3.91008L2.37405 3.30332ZM1.63661 4.04076L2.24337 4.4816L1.63661 4.04076ZM11.8119 10.7077L11.6946 9.96698L11.6946 9.96698L11.8119 10.7077ZM9.04104 13.4786L8.30027 13.3613L8.30027 13.3613L9.04104 13.4786ZM8.25 3.33337C8.25 3.74759 8.58579 4.08337 9 4.08337C9.41421 4.08337 9.75 3.74759 9.75 3.33337H8.25ZM9.75 1.33337C9.75 0.91916 9.41421 0.583374 9 0.583374C8.58579 0.583374 8.25 0.91916 8.25 1.33337H9.75ZM4.25 3.33337C4.25 3.74759 4.58579 4.08337 5 4.08337C5.41421 4.08337 5.75 3.74759 5.75 3.33337H4.25ZM5.75 1.33337C5.75 0.91916 5.41421 0.583374 5 0.583374C4.58579 0.583374 4.25 0.91916 4.25 1.33337H5.75ZM12.9807 10.6667L13.7303 10.6924L12.9807 10.6667ZM9 14.6474L9.02568 15.397L9 14.6474ZM7 13.9167C5.73338 13.9167 4.84366 13.9157 4.15896 13.8415C3.48829 13.7688 3.10384 13.6333 2.81489 13.4233L1.93321 14.6369C2.52048 15.0635 3.19909 15.2463 3.99739 15.3328C4.78165 15.4177 5.7668 15.4167 7 15.4167V13.9167ZM0.25 8.66671C0.25 9.89991 0.248971 10.8851 0.33394 11.6693C0.42043 12.4676 0.603171 13.1462 1.02985 13.7335L2.24337 12.8518C2.03344 12.5629 1.89788 12.1784 1.82521 11.5077C1.75103 10.823 1.75 9.93332 1.75 8.66671H0.25ZM2.81489 13.4233C2.59558 13.264 2.40271 13.0711 2.24337 12.8518L1.02985 13.7335C1.28171 14.0802 1.58656 14.385 1.93321 14.6369L2.81489 13.4233ZM11.7566 12.8518C11.5973 13.0711 11.4044 13.264 11.1851 13.4233L12.0668 14.6369C12.4134 14.385 12.7183 14.0802 12.9702 13.7335L11.7566 12.8518ZM13.75 8.66671C13.75 7.4335 13.751 6.44836 13.6661 5.6641C13.5796 4.8658 13.3968 4.18719 12.9702 3.59992L11.7566 4.4816C11.9666 4.77054 12.1021 5.155 12.1748 5.82567C12.249 6.51037 12.25 7.40009 12.25 8.66671H13.75ZM11.1851 3.91008C11.4044 4.06942 11.5973 4.26228 11.7566 4.4816L12.9702 3.59992C12.7183 3.25326 12.4134 2.94841 12.0668 2.69655L11.1851 3.91008ZM1.75 8.66671C1.75 7.40009 1.75103 6.51037 1.82521 5.82567C1.89788 5.155 2.03344 4.77055 2.24337 4.4816L1.02985 3.59992C0.603171 4.18719 0.42043 4.8658 0.33394 5.6641C0.248971 6.44836 0.25 7.4335 0.25 8.66671H1.75ZM1.93321 2.69655C1.58656 2.94841 1.28171 3.25326 1.02985 3.59992L2.24337 4.4816C2.40271 4.26228 2.59558 4.06942 2.81489 3.91008L1.93321 2.69655ZM11.6946 9.96698C9.94733 10.2437 8.57701 11.614 8.30027 13.3613L9.78181 13.5959C9.95688 12.4905 10.8238 11.6236 11.9292 11.4485L11.6946 9.96698ZM5.75 3.33337V2.68599H4.25V3.33337H5.75ZM5.75 2.68599V1.33337H4.25V2.68599H5.75ZM7 1.91671C6.22487 1.91671 5.5528 1.91661 4.97432 1.93643L5.02568 3.43555C5.573 3.4168 6.21657 3.41671 7 3.41671V1.91671ZM4.97432 1.93643C3.72227 1.97933 2.73534 2.11378 1.93321 2.69655L2.81489 3.91008C3.2189 3.61655 3.79215 3.47782 5.02568 3.43555L4.97432 1.93643ZM9.75 3.33337V2.68599H8.25V3.33337H9.75ZM9.75 2.68599V1.33337H8.25V2.68599H9.75ZM7 3.41671C7.78343 3.41671 8.427 3.4168 8.97432 3.43555L9.02568 1.93643C8.4472 1.91661 7.77513 1.91671 7 1.91671V3.41671ZM8.97432 3.43555C10.2079 3.47782 10.7811 3.61655 11.1851 3.91008L12.0668 2.69655C11.2647 2.11378 10.2777 1.97933 9.02568 1.93643L8.97432 3.43555ZM12.9807 9.91671C12.4017 9.91671 12.0237 9.91485 11.6946 9.96698L11.9292 11.4485C12.1129 11.4194 12.3467 11.4167 12.9807 11.4167L12.9807 9.91671ZM12.25 8.66671C12.25 9.45014 12.2499 10.0937 12.2312 10.641L13.7303 10.6924C13.7501 10.1139 13.75 9.44184 13.75 8.66671H12.25ZM12.2312 10.641C12.1889 11.8746 12.0502 12.4478 11.7566 12.8518L12.9702 13.7335C13.5529 12.9314 13.6874 11.9444 13.7303 10.6924L12.2312 10.641ZM9.75 14.6474C9.75 14.0134 9.75272 13.7796 9.78181 13.5959L8.30027 13.3613C8.24814 13.6904 8.25 14.0684 8.25 14.6474L9.75 14.6474ZM7 15.4167C7.77514 15.4167 8.44721 15.4168 9.02568 15.397L8.97432 13.8979C8.427 13.9166 7.78343 13.9167 7 13.9167V15.4167ZM9.02568 15.397C10.2777 15.3541 11.2647 15.2196 12.0668 14.6369L11.1851 13.4233C10.7811 13.7169 10.2079 13.8556 8.97432 13.8979L9.02568 15.397Z" fill="currentColor"/>
  <path d="M4.33333 6.00004C4.33333 6.36823 4.03486 6.66671 3.66667 6.66671C3.29848 6.66671 3 6.36823 3 6.00004C3 5.63185 3.29848 5.33337 3.66667 5.33337C4.03486 5.33337 4.33333 5.63185 4.33333 6.00004Z" fill="currentColor"/>
  <path d="M4.33333 8.66671C4.33333 9.0349 4.03486 9.33337 3.66667 9.33337C3.29848 9.33337 3 9.0349 3 8.66671C3 8.29852 3.29848 8.00004 3.66667 8.00004C4.03486 8.00004 4.33333 8.29852 4.33333 8.66671Z" fill="currentColor"/>
  <path d="M7.66667 6.00004C7.66667 6.36823 7.36819 6.66671 7 6.66671C6.63181 6.66671 6.33333 6.36823 6.33333 6.00004C6.33333 5.63185 6.63181 5.33337 7 5.33337C7.36819 5.33337 7.66667 5.63185 7.66667 6.00004Z" fill="currentColor"/>
  <path d="M7.66667 8.66671C7.66667 9.0349 7.36819 9.33337 7 9.33337C6.63181 9.33337 6.33333 9.0349 6.33333 8.66671C6.33333 8.29852 6.63181 8.00004 7 8.00004C7.36819 8.00004 7.66667 8.29852 7.66667 8.66671Z" fill="currentColor"/>
  <path d="M7.66667 11.3334C7.66667 11.7016 7.36819 12 7 12C6.63181 12 6.33333 11.7016 6.33333 11.3334C6.33333 10.9652 6.63181 10.6667 7 10.6667C7.36819 10.6667 7.66667 10.9652 7.66667 11.3334Z" fill="#FFD258"/>
  <path d="M11 6.00004C11 6.36823 10.7015 6.66671 10.3333 6.66671C9.96514 6.66671 9.66667 6.36823 9.66667 6.00004C9.66667 5.63185 9.96514 5.33337 10.3333 5.33337C10.7015 5.33337 11 5.63185 11 6.00004Z" fill="#FFD258"/>
  <path d="M11 8.66671C11 9.0349 10.7015 9.33337 10.3333 9.33337C9.96514 9.33337 9.66667 9.0349 9.66667 8.66671C9.66667 8.29852 9.96514 8.00004 10.3333 8.00004C10.7015 8.00004 11 8.29852 11 8.66671Z" fill="#FFD258"/>
  <path d="M4.33333 11.3334C4.33333 11.7016 4.03486 12 3.66667 12C3.29848 12 3 11.7016 3 11.3334C3 10.9652 3.29848 10.6667 3.66667 10.6667C4.03486 10.6667 4.33333 10.9652 4.33333 11.3334Z" fill="#FFD258"/>
</svg>