<svg width="22" height="32" viewBox="0 0 22 32" fill="none" xmlns="http://www.w3.org/2000/svg">
<path id="Vector" d="M1 11H1.75H1ZM1.1026 8.02971L0.361832 7.91239L1.1026 8.02971ZM8.02972 1.1026L7.91239 0.361831L8.02972 1.1026ZM8.02971 30.8974L7.91239 31.6382L8.02971 30.8974ZM1 21H0.250001H1ZM1.1026 23.9703L0.361832 24.0876L1.1026 23.9703ZM21 21H21.75H21ZM20.8974 23.9703L21.6382 24.0876L20.8974 23.9703ZM13.9703 30.8974L14.0876 31.6382L13.9703 30.8974ZM21 11H20.25H21ZM20.8974 8.02971L21.6382 7.91239L20.8974 8.02971ZM13.9703 1.1026L14.0876 0.361831L13.9703 1.1026ZM1 22.6667H0.25H1ZM9.33333 14.3333V13.5833V14.3333ZM10.25 11C10.25 11.4142 10.5858 11.75 11 11.75C11.4142 11.75 11.75 11.4142 11.75 11H10.25ZM20.25 11V21H21.75V11H20.25ZM1.75 21L1.75 11H0.250001L0.250001 21L1.75 21ZM1.75 11C1.75 9.423 1.75233 8.72182 1.84337 8.14704L0.361832 7.91239C0.247674 8.63316 0.250002 9.48032 0.250001 11H1.75ZM11 0.25C9.48032 0.25 8.63316 0.247672 7.91239 0.361831L8.14704 1.84336C8.72182 1.75233 9.423 1.75 11 1.75V0.25ZM1.84337 8.14704C2.3573 4.90219 4.90219 2.3573 8.14704 1.84336L7.91239 0.361831C4.0257 0.977422 0.977424 4.0257 0.361832 7.91239L1.84337 8.14704ZM11 30.25C9.423 30.25 8.72182 30.2477 8.14704 30.1566L7.91239 31.6382C8.63316 31.7523 9.48032 31.75 11 31.75V30.25ZM0.250001 21C0.250001 22.5197 0.247673 23.3668 0.361832 24.0876L1.84336 23.853C1.75233 23.2782 1.75 22.577 1.75 21L0.250001 21ZM8.14704 30.1566C4.90219 29.6427 2.3573 27.0978 1.84336 23.853L0.361832 24.0876C0.977423 27.9743 4.0257 31.0226 7.91239 31.6382L8.14704 30.1566ZM20.25 21C20.25 22.577 20.2477 23.2782 20.1566 23.853L21.6382 24.0876C21.7523 23.3668 21.75 22.5197 21.75 21H20.25ZM11 31.75C12.5197 31.75 13.3668 31.7523 14.0876 31.6382L13.853 30.1566C13.2782 30.2477 12.577 30.25 11 30.25V31.75ZM20.1566 23.853C19.6427 27.0978 17.0978 29.6427 13.853 30.1566L14.0876 31.6382C17.9743 31.0226 21.0226 27.9743 21.6382 24.0876L20.1566 23.853ZM21.75 11C21.75 9.48032 21.7523 8.63316 21.6382 7.91239L20.1566 8.14704C20.2477 8.72182 20.25 9.423 20.25 11L21.75 11ZM11 1.75C12.577 1.75 13.2782 1.75233 13.853 1.84336L14.0876 0.361831C13.3668 0.247672 12.5197 0.25 11 0.25V1.75ZM21.6382 7.91239C21.0226 4.0257 17.9743 0.977422 14.0876 0.361831L13.853 1.84336C17.0978 2.3573 19.6427 4.90219 20.1566 8.14704L21.6382 7.91239ZM12.6667 30.25L9.33333 30.25L9.33333 31.75L12.6667 31.75L12.6667 30.25ZM9.33333 15.0833H12.6667V13.5833H9.33333V15.0833ZM1.75 22.6667C1.75 18.4785 5.14518 15.0833 9.33333 15.0833V13.5833C4.31675 13.5833 0.250001 17.6501 0.25 22.6667H1.75ZM9.33333 30.25C5.14517 30.25 1.75 26.8548 1.75 22.6667H0.25C0.25 27.6833 4.31675 31.75 9.33333 31.75V30.25ZM20.25 22.6667C20.25 26.8548 16.8548 30.25 12.6667 30.25V31.75C17.6833 31.75 21.75 27.6833 21.75 22.6667H20.25ZM21.75 22.6667C21.75 17.6501 17.6833 13.5833 12.6667 13.5833V15.0833C16.8548 15.0833 20.25 18.4785 20.25 22.6667H21.75ZM11.75 11V1L10.25 1V11H11.75Z" fill="currentColor"/>
</svg>
